999
dxflib 2.0.4.8
  0
SECTION
  2
HEADER
  9
$ACADVER
  1
AC1015
  9
$HANDSEED
  5
FFFF
  9
$DIMADEC
 70
2
  9
$GRIDUNIT
 10
0.0
 20
0.0
  9
$DIMASZ
 40
1.0
  9
$DIMGAP
 40
1.0
  9
$LUNITS
 70
2
  9
$AUPREC
 70
2
  9
$SPLINESEGS
 70
8
  9
$INSUNITS
 70
1
  9
$DIMEXO
 40
1.0
  9
$DIMLUNIT
 70
2
  9
$GRIDMODE
 70
1
  9
$DIMTXT
 40
1.0
  9
$LUPREC
 70
4
  9
$DIMSTYLE
  2
Standard
  9
$PSVPSCALE
 40
0.234375
  9
$PLIMMIN
 10
0.0
 20
0.0
  9
$PLIMMAX
 10
17.007874015748033
 20
10.984251968503937
  9
$DIMEXE
 40
1.0
  9
$PINSBASE
 10
3.4648745078740166
 20
1.3515009842519685
 30
0.0
  9
$DIMAUNIT
 70
0
  9
$AUNITS
 70
0
  0
ENDSEC
  0
SECTION
  2
TABLES
  0
TABLE
  2
VPORT
  5
8
100
AcDbSymbolTable
 70
1
  0
VPORT
  5
30
100
AcDbSymbolTableRecord
100
AcDbViewportTableRecord
  2
*Active
 70
0
 10
0.0
 20
0.0
 11
1.0
 21
1.0
 12
286.30555555555549
 22
148.5
 13
0.0
 23
0.0
 14
10.0
 24
10.0
 15
10.0
 25
10.0
 16
0.0
 26
0.0
 36
1.0
 17
0.0
 27
0.0
 37
0.0
 40
297.0
 41
1.92798353909465
 42
50.0
 43
0.0
 44
0.0
 50
0.0
 51
0.0
 71
0
 72
100
 73
1
 74
3
 75
1
 76
1
 77
0
 78
0
281
0
 65
1
110
0.0
120
0.0
130
0.0
111
1.0
121
0.0
131
0.0
112
0.0
122
1.0
132
0.0
 79
0
146
0.0
  0
ENDTAB
  0
TABLE
  2
LTYPE
  5
5
100
AcDbSymbolTable
 70
21
  0
LTYPE
  5
14
100
AcDbSymbolTableRecord
100
AcDbLinetypeTableRecord
  2
ByBlock
 70
0
  3

 72
65
 73
0
 40
0.0
  0
LTYPE
  5
15
100
AcDbSymbolTableRecord
100
AcDbLinetypeTableRecord
  2
ByLayer
 70
0
  3

 72
65
 73
0
 40
0.0
  0
LTYPE
  5
16
100
AcDbSymbolTableRecord
100
AcDbLinetypeTableRecord
  2
CONTINUOUS
 70
0
  3
Solid line
 72
65
 73
0
 40
0.0
  0
LTYPE
  5
31
100
AcDbSymbolTableRecord
100
AcDbLinetypeTableRecord
  2
DOT
 70
0
  3
Dot . . . . . . . . . . . . . . . . . . . . . .
 72
65
 73
2
 40
6.3499999999999996
 49
0.0
 74
0
 49
-6.3499999999999996
 74
0
  0
LTYPE
  5
32
100
AcDbSymbolTableRecord
100
AcDbLinetypeTableRecord
  2
DOT2
 70
0
  3
Dot (.5x) .....................................
 72
65
 73
2
 40
3.1749999999999998
 49
0.0
 74
0
 49
-3.1749999999999998
 74
0
  0
LTYPE
  5
33
100
AcDbSymbolTableRecord
100
AcDbLinetypeTableRecord
  2
DOTX2
 70
0
  3
Dot (2x) .  .  .  .  .  .  .  .  .  .  .  .  .
 72
65
 73
2
 40
12.699999999999999
 49
0.0
 74
0
 49
-12.699999999999999
 74
0
  0
LTYPE
  5
34
100
AcDbSymbolTableRecord
100
AcDbLinetypeTableRecord
  2
DASHED
 70
0
  3
Dashed __ __ __ __ __ __ __ __ __ __ __ __ __ _
 72
65
 73
2
 40
19.050000000000001
 49
12.699999999999999
 74
0
 49
-6.3499999999999996
 74
0
  0
LTYPE
  5
35
100
AcDbSymbolTableRecord
100
AcDbLinetypeTableRecord
  2
DASHED2
 70
0
  3
Dashed (.5x) _ _ _ _ _ _ _ _ _ _ _ _ _ _ _ _ _
 72
65
 73
2
 40
9.5250000000000004
 49
6.3499999999999996
 74
0
 49
-3.1749999999999998
 74
0
  0
LTYPE
  5
36
100
AcDbSymbolTableRecord
100
AcDbLinetypeTableRecord
  2
DASHEDX2
 70
0
  3
Dashed (2x) ____  ____  ____  ____  ____  ___
 72
65
 73
2
 40
38.100000000000001
 49
25.399999999999999
 74
0
 49
-12.699999999999999
 74
0
  0
LTYPE
  5
37
100
AcDbSymbolTableRecord
100
AcDbLinetypeTableRecord
  2
DASHDOT
 70
0
  3
Dash dot __ . __ . __ . __ . __ . __ . __ . __
 72
65
 73
4
 40
25.399999999999999
 49
12.699999999999999
 74
0
 49
-6.3499999999999996
 74
0
 49
0.0
 74
0
 49
-6.3499999999999996
 74
0
  0
LTYPE
  5
38
100
AcDbSymbolTableRecord
100
AcDbLinetypeTableRecord
  2
DASHDOT2
 70
0
  3
Dash dot (.5x) _._._._._._._._._._._._._._._.
 72
65
 73
4
 40
12.699999999999999
 49
6.3499999999999996
 74
0
 49
-3.1749999999999998
 74
0
 49
0.0
 74
0
 49
-3.1749999999999998
 74
0
  0
LTYPE
  5
39
100
AcDbSymbolTableRecord
100
AcDbLinetypeTableRecord
  2
DASHDOTX2
 70
0
  3
Dash dot (2x) ____  .  ____  .  ____  .  ___
 72
65
 73
4
 40
50.799999999999997
 49
25.399999999999999
 74
0
 49
-12.699999999999999
 74
0
 49
0.0
 74
0
 49
-12.699999999999999
 74
0
  0
LTYPE
  5
3A
100
AcDbSymbolTableRecord
100
AcDbLinetypeTableRecord
  2
DIVIDE
 70
0
  3
Divide ____ . . ____ . . ____ . . ____ . . ____
 72
65
 73
6
 40
31.75
 49
12.699999999999999
 74
0
 49
-6.3499999999999996
 74
0
 49
0.0
 74
0
 49
-6.3499999999999996
 74
0
 49
0.0
 74
0
 49
-6.3499999999999996
 74
0
  0
LTYPE
  5
3B
100
AcDbSymbolTableRecord
100
AcDbLinetypeTableRecord
  2
DIVIDE2
 70
0
  3
Divide (.5x) __..__..__..__..__..__..__..__.._
 72
65
 73
6
 40
15.875
 49
6.3499999999999996
 74
0
 49
-3.1749999999999998
 74
0
 49
0.0
 74
0
 49
-3.1749999999999998
 74
0
 49
0.0
 74
0
 49
-3.1749999999999998
 74
0
  0
LTYPE
  5
3C
100
AcDbSymbolTableRecord
100
AcDbLinetypeTableRecord
  2
DIVIDEX2
 70
0
  3
Divide (2x) ________  .  .  ________  .  .  _
 72
65
 73
6
 40
63.5
 49
25.399999999999999
 74
0
 49
-12.699999999999999
 74
0
 49
0.0
 74
0
 49
-12.699999999999999
 74
0
 49
0.0
 74
0
 49
-12.699999999999999
 74
0
  0
LTYPE
  5
3D
100
AcDbSymbolTableRecord
100
AcDbLinetypeTableRecord
  2
CENTER
 70
0
  3
Center ____ _ ____ _ ____ _ ____ _ ____ _ ____
 72
65
 73
4
 40
50.799999999999997
 49
31.75
 74
0
 49
-6.3499999999999996
 74
0
 49
6.3499999999999996
 74
0
 49
-6.3499999999999996
 74
0
  0
LTYPE
  5
3E
100
AcDbSymbolTableRecord
100
AcDbLinetypeTableRecord
  2
CENTER2
 70
0
  3
Center (.5x) ___ _ ___ _ ___ _ ___ _ ___ _ ___
 72
65
 73
4
 40
28.574999999999999
 49
19.050000000000001
 74
0
 49
-3.1749999999999998
 74
0
 49
3.1749999999999998
 74
0
 49
-3.1749999999999998
 74
0
  0
LTYPE
  5
3F
100
AcDbSymbolTableRecord
100
AcDbLinetypeTableRecord
  2
CENTERX2
 70
0
  3
Center (2x) ________  __  ________  __  _____
 72
65
 73
4
 40
101.59999999999999
 49
63.5
 74
0
 49
-12.699999999999999
 74
0
 49
12.699999999999999
 74
0
 49
-12.699999999999999
 74
0
  0
LTYPE
  5
40
100
AcDbSymbolTableRecord
100
AcDbLinetypeTableRecord
  2
BORDER
 70
0
  3
Border __ __ . __ __ . __ __ . __ __ . __ __ .
 72
65
 73
6
 40
44.450000000000003
 49
12.699999999999999
 74
0
 49
-6.3499999999999996
 74
0
 49
12.699999999999999
 74
0
 49
-6.3499999999999996
 74
0
 49
0.0
 74
0
 49
-6.3499999999999996
 74
0
  0
LTYPE
  5
41
100
AcDbSymbolTableRecord
100
AcDbLinetypeTableRecord
  2
BORDER2
 70
0
  3
Border (.5x) __.__.__.__.__.__.__.__.__.__.__.
 72
65
 73
6
 40
22.225000000000001
 49
6.3499999999999996
 74
0
 49
-3.1749999999999998
 74
0
 49
6.3499999999999996
 74
0
 49
-3.1749999999999998
 74
0
 49
0.0
 74
0
 49
-3.1749999999999998
 74
0
  0
LTYPE
  5
42
100
AcDbSymbolTableRecord
100
AcDbLinetypeTableRecord
  2
BORDERX2
 70
0
  3
Border (2x) ____  ____  .  ____  ____  .  ___
 72
65
 73
6
 40
88.900000000000006
 49
25.399999999999999
 74
0
 49
-12.699999999999999
 74
0
 49
25.399999999999999
 74
0
 49
-12.699999999999999
 74
0
 49
0.0
 74
0
 49
-12.699999999999999
 74
0
  0
ENDTAB
  0
TABLE
  2
LAYER
  5
2
100
AcDbSymbolTable
 70
1
  0
LAYER
  5
10
100
AcDbSymbolTableRecord
100
AcDbLayerTableRecord
  2
0
 70
0
 62
7
  6
CONTINUOUS
370
0
390
F
  0
ENDTAB
  0
TABLE
  2
STYLE
  5
3
100
AcDbSymbolTable
 70
1
  0
STYLE
  5
11
100
AcDbSymbolTableRecord
100
AcDbTextStyleTableRecord
  2
Standard
 70
0
 40
0.0
 41
0.75
 50
0.0
 71
0
 42
2.5
  3
txt
  4

  0
ENDTAB
  0
TABLE
  2
VIEW
  5
6
100
AcDbSymbolTable
 70
0
  0
ENDTAB
  0
TABLE
  2
UCS
  5
7
100
AcDbSymbolTable
 70
0
  0
ENDTAB
  0
TABLE
  2
APPID
  5
9
100
AcDbSymbolTable
 70
1
  0
APPID
  5
12
100
AcDbSymbolTableRecord
100
AcDbRegAppTableRecord
  2
ACAD
 70
0
  0
ENDTAB
  0
TABLE
  2
DIMSTYLE
  5
A
100
AcDbSymbolTable
 70
1
100
AcDbDimStyleTable
 71
0
  0
DIMSTYLE
105
27
100
AcDbSymbolTableRecord
100
AcDbDimStyleTableRecord
  2
Standard
 41
1.0
 42
1.0
 43
3.75
 44
1.0
 70
0
 73
0
 74
0
 77
1
 78
8
140
1.0
141
2.5
143
0.03937007874016
147
1.0
171
3
172
1
271
2
272
2
274
3
278
44
283
0
284
8
340
11
  0
ENDTAB
  0
TABLE
  2
BLOCK_RECORD
  5
1
100
AcDbSymbolTable
 70
1
  0
BLOCK_RECORD
  5
1F
100
AcDbSymbolTableRecord
100
AcDbBlockTableRecord
  2
*Model_Space
340
22
  0
BLOCK_RECORD
  5
1B
100
AcDbSymbolTableRecord
100
AcDbBlockTableRecord
  2
*Paper_Space
340
1E
  0
BLOCK_RECORD
  5
23
100
AcDbSymbolTableRecord
100
AcDbBlockTableRecord
  2
*Paper_Space0
340
26
  0
ENDTAB
  0
ENDSEC
  0
SECTION
  2
BLOCKS
  0
BLOCK
  5
20
100
AcDbEntity
  8
0
100
AcDbBlockBegin
  2
*Model_Space
 70
0
 10
0.0
 20
0.0
 30
0.0
  3
*Model_Space
  1

  0
ENDBLK
  5
21
100
AcDbEntity
  8
0
100
AcDbBlockEnd
  0
BLOCK
  5
1C
100
AcDbEntity
 67
1
  8
0
100
AcDbBlockBegin
  2
*Paper_Space
 70
0
 10
0.0
 20
0.0
 30
0.0
  3
*Paper_Space
  1

  0
ENDBLK
  5
1D
100
AcDbEntity
 67
1
  8
0
100
AcDbBlockEnd
  0
BLOCK
  5
24
100
AcDbEntity
  8
0
100
AcDbBlockBegin
  2
*Paper_Space0
 70
0
 10
0.0
 20
0.0
 30
0.0
  3
*Paper_Space0
  1

  0
ENDBLK
  5
25
100
AcDbEntity
  8
0
100
AcDbBlockEnd
  0
ENDSEC
  0
SECTION
  2
ENTITIES
  0
LINE
  5
43
100
AcDbEntity
100
AcDbLine
  8
0
 62
256
370
-1
  6
ByLayer
 10
0.0
 20
2.0
 30
0.0
 11
0.0
 21
0.0
 31
0.0
  0
DIMENSION
  5
44
100
AcDbEntity
  8
0
 62
256
370
-1
  6
ByLayer
100
AcDbDimension
 10
-4.0
 20
2.0
 30
0.0
 11
-5.5
 21
1.0000000000000002
 31
0.0
 70
0
 71
5
 72
0
 41
1.0
 42
0.0
  1

  3
Standard
100
AcDbAlignedDimension
 13
-3.0
 23
0.0
 33
0.0
 14
-3.0
 24
2.0
 34
0.0
 50
90.0
100
AcDbRotatedDimension
  0
LINE
  5
45
100
AcDbEntity
100
AcDbLine
  8
0
 62
256
370
-1
  6
ByLayer
 10
0.0
 20
0.0
 30
0.0
 11
-0.75
 21
0.0
 31
0.0
  0
LINE
  5
46
100
AcDbEntity
100
AcDbLine
  8
0
 62
256
370
-1
  6
ByLayer
 10
0.0
 20
2.0
 30
0.0
 11
1.5
 21
2.0
 31
0.0
  0
LINE
  5
47
100
AcDbEntity
100
AcDbLine
  8
0
 62
256
370
-1
  6
ByLayer
 10
1.5
 20
2.0
 30
0.0
 11
1.5
 21
0.5
 31
0.0
  0
LINE
  5
48
100
AcDbEntity
100
AcDbLine
  8
0
 62
256
370
-1
  6
ByLayer
 10
1.5
 20
0.5
 30
0.0
 11
0.0
 21
0.5
 31
0.0
  0
LINE
  5
49
100
AcDbEntity
100
AcDbLine
  8
0
 62
256
370
-1
  6
ByLayer
 10
0.0
 20
0.5
 30
0.0
 11
0.0
 21
2.0
 31
0.0
  0
LINE
  5
4A
100
AcDbEntity
100
AcDbLine
  8
0
 62
256
370
-1
  6
ByLayer
 10
-0.3
 20
2.0
 30
0.0
 11
0.0
 21
2.0
 31
0.0
  0
LINE
  5
4B
100
AcDbEntity
100
AcDbLine
  8
0
 62
256
370
-1
  6
ByLayer
 10
0.0
 20
0.5
 30
0.0
 11
0.0
 21
2.0
 31
0.0
  0
LINE
  5
4C
100
AcDbEntity
100
AcDbLine
  8
0
 62
256
370
-1
  6
ByLayer
 10
0.0
 20
27.0
 30
0.0
 11
0.0
 21
22.75
 31
0.0
  0
MTEXT
  5
4D
100
AcDbEntity
100
AcDbMText
  8
0
 62
256
370
-1
  6
ByLayer
 10
10.0
 20
5.0
 30
0.0
 40
1.0
 41
100.0
 71
2
 72
2
  1
15"\~Deep
  7
normallatin1
 50
0.0
 73
0
 44
1.0
  0
LINE
  5
4E
100
AcDbEntity
100
AcDbLine
  8
0
 62
256
370
-1
  6
ByLayer
 10
21.25
 20
0.0
 30
0.0
 11
21.25
 21
2.0
 31
0.0
  0
LINE
  5
4F
100
AcDbEntity
100
AcDbLine
  8
0
 62
256
370
-1
  6
ByLayer
 10
21.25
 20
2.0
 30
0.0
 11
1.25
 21
2.0
 31
0.0
  0
LINE
  5
50
100
AcDbEntity
100
AcDbLine
  8
0
 62
256
370
-1
  6
ByLayer
 10
1.25
 20
2.0
 30
0.0
 11
21.25
 21
2.0
 31
0.0
  0
LINE
  5
51
100
AcDbEntity
100
AcDbLine
  8
0
 62
256
370
-1
  6
ByLayer
 10
21.25
 20
0.0
 30
0.0
 11
22.0
 21
0.0
 31
0.0
  0
LINE
  5
52
100
AcDbEntity
100
AcDbLine
  8
0
 62
256
370
-1
  6
ByLayer
 10
1.25
 20
2.0
 30
0.0
 11
21.25
 21
2.0
 31
0.0
  0
LINE
  5
53
100
AcDbEntity
100
AcDbLine
  8
0
 62
256
370
-1
  6
ByLayer
 10
21.25
 20
2.0
 30
0.0
 11
19.75
 21
2.0
 31
0.0
  0
LINE
  5
54
100
AcDbEntity
100
AcDbLine
  8
0
 62
256
370
-1
  6
ByLayer
 10
19.75
 20
2.0
 30
0.0
 11
19.75
 21
0.5
 31
0.0
  0
LINE
  5
55
100
AcDbEntity
100
AcDbLine
  8
0
 62
256
370
-1
  6
ByLayer
 10
19.75
 20
0.5
 30
0.0
 11
21.25
 21
0.5
 31
0.0
  0
LINE
  5
56
100
AcDbEntity
100
AcDbLine
  8
0
 62
256
370
-1
  6
ByLayer
 10
21.25
 20
0.5
 30
0.0
 11
21.25
 21
2.0
 31
0.0
  0
LINE
  5
57
100
AcDbEntity
100
AcDbLine
  8
0
 62
256
370
-1
  6
ByLayer
 10
21.25
 20
2.0
 30
0.0
 11
21.25
 21
0.5
 31
0.0
  0
LINE
  5
58
100
AcDbEntity
100
AcDbLine
  8
0
 62
256
370
-1
  6
ByLayer
 10
0.0
 20
0.0
 30
0.0
 11
21.25
 21
0.0
 31
0.0
  0
LINE
  5
59
100
AcDbEntity
100
AcDbLine
  8
0
 62
256
370
-1
  6
ByLayer
 10
21.25
 20
2.75
 30
0.0
 11
0.0
 21
2.75
 31
0.0
  0
MTEXT
  5
5A
100
AcDbEntity
100
AcDbMText
  8
0
 62
256
370
-1
  6
ByLayer
 10
10.000000000000002
 20
2.6000000000000001
 30
0.0
 40
0.25
 41
100.0
 71
2
 72
2
  1
E
  7
normallatin1
 50
0.0
 73
0
 44
1.0
  0
MTEXT
  5
5B
100
AcDbEntity
100
AcDbMText
  8
0
 62
256
370
-1
  6
ByLayer
 10
24.0
 20
-1.0
 30
0.0
 40
2.0
 41
100.0
 71
2
 72
2
  1
B\~Sized\~Drawing\~Shelf
  7
normallatin1
 50
0.0
 73
0
 44
1.0
  0
DIMENSION
  5
5C
100
AcDbEntity
  8
0
 62
256
370
-1
  6
ByLayer
100
AcDbDimension
 10
7.0
 20
31.0
 30
0.0
 11
10.625
 21
32.5
 31
0.0
 70
0
 71
5
 72
0
 41
1.0
 42
0.0
  1

  3
Standard
100
AcDbAlignedDimension
 13
-0.0000000000000001
 23
29.0
 33
0.0
 14
21.25
 24
29.0
 34
0.0
 50
0.0
100
AcDbRotatedDimension
  0
DIMENSION
  5
5D
100
AcDbEntity
  8
0
 62
256
370
-1
  6
ByLayer
100
AcDbDimension
 10
21.0
 20
37.0
 30
0.0
 11
10.624999999999998
 21
38.5
 31
0.0
 70
0
 71
5
 72
0
 41
1.0
 42
0.0
  1

  3
Standard
100
AcDbAlignedDimension
 13
-0.75
 23
29.75
 33
0.0
 14
21.999999999999996
 24
29.75
 34
0.0
 50
0.0
100
AcDbRotatedDimension
  0
LINE
  5
5E
100
AcDbEntity
100
AcDbLine
  8
0
 62
256
370
-1
  6
ByLayer
 10
1.25
 20
6.75
 30
0.0
 11
21.25
 21
6.75
 31
0.0
  0
LINE
  5
5F
100
AcDbEntity
100
AcDbLine
  8
0
 62
256
370
-1
  6
ByLayer
 10
21.25
 20
6.75
 30
0.0
 11
1.25
 21
6.75
 31
0.0
  0
LINE
  5
60
100
AcDbEntity
100
AcDbLine
  8
0
 62
256
370
-1
  6
ByLayer
 10
1.25
 20
6.75
 30
0.0
 11
21.25
 21
6.75
 31
0.0
  0
LINE
  5
61
100
AcDbEntity
100
AcDbLine
  8
0
 62
256
370
-1
  6
ByLayer
 10
1.25
 20
6.75
 30
0.0
 11
21.25
 21
6.75
 31
0.0
  0
LINE
  5
62
100
AcDbEntity
100
AcDbLine
  8
0
 62
256
370
-1
  6
ByLayer
 10
21.25
 20
7.5
 30
0.0
 11
0.0
 21
7.5
 31
0.0
  0
LINE
  5
63
100
AcDbEntity
100
AcDbLine
  8
0
 62
256
370
-1
  6
ByLayer
 10
21.25
 20
6.75
 30
0.0
 11
0.0
 21
6.75
 31
0.0
  0
MTEXT
  5
64
100
AcDbEntity
100
AcDbMText
  8
0
 62
256
370
-1
  6
ByLayer
 10
10.0
 20
7.2500000000000009
 30
0.0
 40
0.25
 41
100.0
 71
2
 72
2
  1
E
  7
normallatin1
 50
0.0
 73
0
 44
1.0
  0
LINE
  5
65
100
AcDbEntity
100
AcDbLine
  8
0
 62
256
370
-1
  6
ByLayer
 10
0.0
 20
2.75
 30
0.0
 11
0.0
 21
6.7500000000000009
 31
0.0
  0
LINE
  5
66
100
AcDbEntity
100
AcDbLine
  8
0
 62
256
370
-1
  6
ByLayer
 10
1.25
 20
11.500000000000002
 30
0.0
 11
21.25
 21
11.500000000000002
 31
0.0
  0
LINE
  5
67
100
AcDbEntity
100
AcDbLine
  8
0
 62
256
370
-1
  6
ByLayer
 10
1.25
 20
11.500000000000002
 30
0.0
 11
21.25
 21
11.500000000000002
 31
0.0
  0
LINE
  5
68
100
AcDbEntity
100
AcDbLine
  8
0
 62
256
370
-1
  6
ByLayer
 10
1.25
 20
11.500000000000002
 30
0.0
 11
21.25
 21
11.500000000000002
 31
0.0
  0
LINE
  5
69
100
AcDbEntity
100
AcDbLine
  8
0
 62
256
370
-1
  6
ByLayer
 10
21.25
 20
11.500000000000002
 30
0.0
 11
1.25
 21
11.500000000000002
 31
0.0
  0
LINE
  5
6A
100
AcDbEntity
100
AcDbLine
  8
0
 62
256
370
-1
  6
ByLayer
 10
21.25
 20
12.250000000000002
 30
0.0
 11
-0.0000000000000001
 21
12.250000000000002
 31
0.0
  0
LINE
  5
6B
100
AcDbEntity
100
AcDbLine
  8
0
 62
256
370
-1
  6
ByLayer
 10
21.25
 20
11.500000000000002
 30
0.0
 11
-0.0000000000000001
 21
11.500000000000002
 31
0.0
  0
MTEXT
  5
6C
100
AcDbEntity
100
AcDbMText
  8
0
 62
256
370
-1
  6
ByLayer
 10
10.0
 20
12.000000000000002
 30
0.0
 40
0.25
 41
100.0
 71
2
 72
2
  1
E
  7
normallatin1
 50
0.0
 73
0
 44
1.0
  0
LINE
  5
6D
100
AcDbEntity
100
AcDbLine
  8
0
 62
256
370
-1
  6
ByLayer
 10
0.0
 20
7.75
 30
0.0
 11
-0.0000000000000001
 21
11.500000000000002
 31
0.0
  0
LINE
  5
6E
100
AcDbEntity
100
AcDbLine
  8
0
 62
256
370
-1
  6
ByLayer
 10
21.25
 20
2.75
 30
0.0
 11
21.25
 21
6.7500000000000009
 31
0.0
  0
LINE
  5
6F
100
AcDbEntity
100
AcDbLine
  8
0
 62
256
370
-1
  6
ByLayer
 10
21.25
 20
11.500000000000002
 30
0.0
 11
21.25
 21
7.5000000000000009
 31
0.0
  0
DIMENSION
  5
70
100
AcDbEntity
  8
0
 62
256
370
-1
  6
ByLayer
100
AcDbDimension
 10
-4.0
 20
7.0
 30
0.0
 11
-5.5
 21
4.375
 31
0.0
 70
0
 71
5
 72
0
 41
1.0
 42
0.0
  1

  3
Standard
100
AcDbAlignedDimension
 13
-3.0
 23
2.0
 33
0.0
 14
-3.0
 24
6.7500000000000009
 34
0.0
 50
90.0
100
AcDbRotatedDimension
  0
LINE
  5
71
100
AcDbEntity
100
AcDbLine
  8
0
 62
256
370
-1
  6
ByLayer
 10
21.25
 20
17.000000000000004
 30
0.0
 11
-0.0000000000000001
 21
17.000000000000004
 31
0.0
  0
MTEXT
  5
72
100
AcDbEntity
100
AcDbMText
  8
0
 62
256
370
-1
  6
ByLayer
 10
10.0
 20
16.650000000000002
 30
0.0
 40
0.25
 41
100.0
 71
2
 72
2
  1
E
  7
normallatin1
 50
0.0
 73
0
 44
1.0
  0
LINE
  5
73
100
AcDbEntity
100
AcDbLine
  8
0
 62
256
370
-1
  6
ByLayer
 10
0.0
 20
12.25
 30
0.0
 11
-0.0
 21
16.25
 31
0.0
  0
LINE
  5
74
100
AcDbEntity
100
AcDbLine
  8
0
 62
256
370
-1
  6
ByLayer
 10
21.25
 20
16.25
 30
0.0
 11
21.25
 21
12.25
 31
0.0
  0
LINE
  5
75
100
AcDbEntity
100
AcDbLine
  8
0
 62
256
370
-1
  6
ByLayer
 10
21.25
 20
21.0
 30
0.0
 11
1.25
 21
21.0
 31
0.0
  0
LINE
  5
76
100
AcDbEntity
100
AcDbLine
  8
0
 62
256
370
-1
  6
ByLayer
 10
1.25
 20
21.0
 30
0.0
 11
21.25
 21
21.0
 31
0.0
  0
LINE
  5
77
100
AcDbEntity
100
AcDbLine
  8
0
 62
256
370
-1
  6
ByLayer
 10
1.25
 20
21.0
 30
0.0
 11
21.25
 21
21.0
 31
0.0
  0
LINE
  5
78
100
AcDbEntity
100
AcDbLine
  8
0
 62
256
370
-1
  6
ByLayer
 10
0.0
 20
21.0
 30
0.0
 11
21.25
 21
21.0
 31
0.0
  0
LINE
  5
79
100
AcDbEntity
100
AcDbLine
  8
0
 62
256
370
-1
  6
ByLayer
 10
21.25
 20
21.0
 30
0.0
 11
0.0
 21
21.0
 31
0.0
  0
LINE
  5
7A
100
AcDbEntity
100
AcDbLine
  8
0
 62
256
370
-1
  6
ByLayer
 10
21.25
 20
21.75
 30
0.0
 11
0.0
 21
21.75
 31
0.0
  0
MTEXT
  5
7B
100
AcDbEntity
100
AcDbMText
  8
0
 62
256
370
-1
  6
ByLayer
 10
10.0
 20
21.5
 30
0.0
 40
0.25
 41
100.0
 71
2
 72
2
  1
E
  7
normallatin1
 50
0.0
 73
0
 44
1.0
  0
LINE
  5
7C
100
AcDbEntity
100
AcDbLine
  8
0
 62
256
370
-1
  6
ByLayer
 10
21.25
 20
20.999999999999996
 30
0.0
 11
21.25
 21
16.999999999999996
 31
0.0
  0
LINE
  5
7D
100
AcDbEntity
100
AcDbLine
  8
0
 62
256
370
-1
  6
ByLayer
 10
21.25
 20
27.0
 30
0.0
 11
21.249999999999996
 21
21.75
 31
0.0
  0
DIMENSION
  5
7E
100
AcDbEntity
  8
0
 62
256
370
-1
  6
ByLayer
100
AcDbDimension
 10
-4.0
 20
12.0
 30
0.0
 11
-5.5
 21
9.125
 31
0.0
 70
0
 71
5
 72
0
 41
1.0
 42
0.0
  1

  3
Standard
100
AcDbAlignedDimension
 13
-0.2999999999999998
 23
6.75
 33
0.0
 14
-0.2999999999999998
 24
11.500000000000002
 34
0.0
 50
90.0
100
AcDbRotatedDimension
  0
DIMENSION
  5
7F
100
AcDbEntity
  8
0
 62
256
370
-1
  6
ByLayer
100
AcDbDimension
 10
-2.0
 20
12.0
 30
0.0
 11
-3.5
 21
9.5
 31
0.0
 70
0
 71
5
 72
0
 41
1.0
 42
0.0
  1

  3
Standard
100
AcDbAlignedDimension
 13
-0.3
 23
7.5
 33
0.0
 14
-0.3
 24
11.500000000000002
 34
0.0
 50
90.0
100
AcDbRotatedDimension
  0
DIMENSION
  5
80
100
AcDbEntity
  8
0
 62
256
370
-1
  6
ByLayer
100
AcDbDimension
 10
-4.0
 20
17.0
 30
0.0
 11
-5.5
 21
13.875000000000004
 31
0.0
 70
0
 71
5
 72
0
 41
1.0
 42
0.0
  1

  3
Standard
100
AcDbAlignedDimension
 13
-0.2999999999999998
 23
11.500000000000002
 33
0.0
 14
-0.2999999999999998
 24
16.250000000000004
 34
0.0
 50
90.0
100
AcDbRotatedDimension
  0
DIMENSION
  5
81
100
AcDbEntity
  8
0
 62
256
370
-1
  6
ByLayer
100
AcDbDimension
 10
-4.0
 20
22.0
 30
0.0
 11
-5.5
 21
18.625
 31
0.0
 70
0
 71
5
 72
0
 41
1.0
 42
0.0
  1

  3
Standard
100
AcDbAlignedDimension
 13
-0.2999999999999998
 23
16.250000000000004
 33
0.0
 14
-0.2999999999999998
 24
21.0
 34
0.0
 50
90.0
100
AcDbRotatedDimension
  0
LINE
  5
82
100
AcDbEntity
100
AcDbLine
  8
0
 62
256
370
-1
  6
ByLayer
 10
0.0000000000000001
 20
20.5
 30
0.0
 11
0.0000000000000001
 21
25.75
 31
0.0
  0
MTEXT
  5
83
100
AcDbEntity
100
AcDbMText
  8
0
 62
256
370
-1
  6
ByLayer
 10
10.0
 20
25.0
 30
0.0
 40
1.0
 41
100.0
 71
2
 72
2
  1
Shelves\~hold\~11x17\~\Ppaper\~box\~lids\~(12x18).
  7
normallatin1
 50
0.0
 73
0
 44
1.0
  0
DIMENSION
  5
84
100
AcDbEntity
  8
0
 62
256
370
-1
  6
ByLayer
100
AcDbDimension
 10
-4.0
 20
27.0
 30
0.0
 11
-5.5
 21
23.375
 31
0.0
 70
0
 71
5
 72
0
 41
1.0
 42
0.0
  1

  3
Standard
100
AcDbAlignedDimension
 13
-0.2999999999999998
 23
21.0
 33
0.0
 14
0.0
 24
25.75
 34
0.0
 50
90.0
100
AcDbRotatedDimension
  0
LINE
  5
85
100
AcDbEntity
100
AcDbLine
  8
0
 62
256
370
-1
  6
ByLayer
 10
-0.75
 20
0.0
 30
0.0
 11
-0.75
 21
27.75
 31
0.0
  0
LINE
  5
86
100
AcDbEntity
100
AcDbLine
  8
0
 62
256
370
-1
  6
ByLayer
 10
1.5
 20
27.25
 30
0.0
 11
1.5
 21
25.75
 31
0.0
  0
LINE
  5
87
100
AcDbEntity
100
AcDbLine
  8
0
 62
256
370
-1
  6
ByLayer
 10
1.5
 20
25.75
 30
0.0
 11
0.0000000000000001
 21
25.75
 31
0.0
  0
LINE
  5
88
100
AcDbEntity
100
AcDbLine
  8
0
 62
256
370
-1
  6
ByLayer
 10
19.75
 20
27.25
 30
0.0
 11
19.75
 21
25.75
 31
0.0
  0
LINE
  5
89
100
AcDbEntity
100
AcDbLine
  8
0
 62
256
370
-1
  6
ByLayer
 10
19.75
 20
25.75
 30
0.0
 11
21.25
 21
25.75
 31
0.0
  0
LINE
  5
8A
100
AcDbEntity
100
AcDbLine
  8
0
 62
256
370
-1
  6
ByLayer
 10
21.25
 20
25.75
 30
0.0
 11
21.25
 21
27.25
 31
0.0
  0
LINE
  5
8B
100
AcDbEntity
100
AcDbLine
  8
0
 62
256
370
-1
  6
ByLayer
 10
1.5
 20
25.75
 30
0.0
 11
19.75
 21
25.75
 31
0.0
  0
LINE
  5
8C
100
AcDbEntity
100
AcDbLine
  8
0
 62
256
370
-1
  6
ByLayer
 10
21.999999999999996
 20
28.0
 30
0.0
 11
-0.7499999999999999
 21
28.0
 31
0.0
  0
LINE
  5
8D
100
AcDbEntity
100
AcDbLine
  8
0
 62
256
370
-1
  6
ByLayer
 10
-0.75
 20
27.25
 30
0.0
 11
0.0
 21
27.25
 31
0.0
  0
LINE
  5
8E
100
AcDbEntity
100
AcDbLine
  8
0
 62
256
370
-1
  6
ByLayer
 10
0.0
 20
27.25
 30
0.0
 11
1.5
 21
27.25
 31
0.0
  0
LINE
  5
8F
100
AcDbEntity
100
AcDbLine
  8
0
 62
256
370
-1
  6
ByLayer
 10
21.25
 20
27.25
 30
0.0
 11
1.2499999999999998
 21
27.25
 31
0.0
  0
LINE
  5
90
100
AcDbEntity
100
AcDbLine
  8
0
 62
256
370
-1
  6
ByLayer
 10
22.0
 20
27.25
 30
0.0
 11
21.25
 21
27.25
 31
0.0
  0
LINE
  5
91
100
AcDbEntity
100
AcDbLine
  8
0
 62
256
370
-1
  6
ByLayer
 10
0.5
 20
27.25
 30
0.0
 11
21.999999999999996
 21
27.25
 31
0.0
  0
LINE
  5
92
100
AcDbEntity
100
AcDbLine
  8
0
 62
256
370
-1
  6
ByLayer
 10
21.25
 20
27.25
 30
0.0
 11
19.75
 21
27.25
 31
0.0
  0
LINE
  5
93
100
AcDbEntity
100
AcDbLine
  8
0
 62
256
370
-1
  6
ByLayer
 10
-0.7499999999999999
 20
28.0
 30
0.0
 11
-0.7499999999999999
 21
27.25
 31
0.0
  0
LINE
  5
94
100
AcDbEntity
100
AcDbLine
  8
0
 62
256
370
-1
  6
ByLayer
 10
21.999999999999996
 20
27.25
 30
0.0
 11
21.999999999999996
 21
28.0
 31
0.0
  0
DIMENSION
  5
95
100
AcDbEntity
  8
0
 62
256
370
-1
  6
ByLayer
100
AcDbDimension
 10
-7.0
 20
33.25
 30
0.0
 11
-8.5
 21
14.0
 31
0.0
 70
0
 71
5
 72
0
 41
1.0
 42
0.0
  1

  3
Standard
100
AcDbAlignedDimension
 13
-0.75
 23
0.0
 33
0.0
 14
-0.7499999999999999
 24
28.0
 34
0.0
 50
90.0
100
AcDbRotatedDimension
  0
DIMENSION
  5
96
100
AcDbEntity
  8
0
 62
256
370
-1
  6
ByLayer
100
AcDbDimension
 10
-4.0
 20
27.25
 30
0.0
 11
-5.5
 21
26.5
 31
0.0
 70
0
 71
5
 72
1
 41
1.0
 42
0.0
  1

  3
Standard
100
AcDbAlignedDimension
 13
0.0000000000000001
 23
25.75
 33
0.0
 14
0.0
 24
27.25
 34
0.0
 50
90.0
100
AcDbRotatedDimension
  0
LINE
  5
97
100
AcDbEntity
100
AcDbLine
  8
0
 62
256
370
-1
  6
ByLayer
 10
0.0
 20
27.25
 30
0.0
 11
0.0000000000000001
 21
26.0
 31
0.0
  0
LINE
  5
98
100
AcDbEntity
100
AcDbLine
  8
0
 62
256
370
-1
  6
ByLayer
 10
22.0
 20
0.0
 30
0.0
 11
22.0
 21
27.25
 31
0.0
  0
LINE
  5
99
100
AcDbEntity
100
AcDbLine
  8
0
 62
256
370
-1
  6
ByLayer
 10
21.25
 20
26.0
 30
0.0
 11
21.25
 21
27.25
 31
0.0
  0
LINE
  5
9A
100
AcDbEntity
100
AcDbLine
  8
0
 62
256
370
-1
  6
ByLayer
 10
0.0
 20
6.0
 30
0.0
 11
0.0
 21
3.0
 31
0.0
  0
LINE
  5
9B
100
AcDbEntity
100
AcDbLine
  8
0
 62
256
370
-1
  6
ByLayer
 10
21.25
 20
3.0
 30
0.0
 11
21.25
 21
6.0
 31
0.0
  0
LINE
  5
9C
100
AcDbEntity
100
AcDbLine
  8
0
 62
256
370
-1
  6
ByLayer
 10
21.25
 20
7.7500000000000018
 30
0.0
 11
21.25
 21
10.750000000000002
 31
0.0
  0
LINE
  5
9D
100
AcDbEntity
100
AcDbLine
  8
0
 62
256
370
-1
  6
ByLayer
 10
-0.0000000000000001
 20
15.500000000000004
 30
0.0
 11
-0.0000000000000001
 21
12.500000000000004
 31
0.0
  0
LINE
  5
9E
100
AcDbEntity
100
AcDbLine
  8
0
 62
256
370
-1
  6
ByLayer
 10
21.25
 20
12.500000000000004
 30
0.0
 11
21.25
 21
15.500000000000004
 31
0.0
  0
LINE
  5
9F
100
AcDbEntity
100
AcDbLine
  8
0
 62
256
370
-1
  6
ByLayer
 10
-0.0000000000000002
 20
20.250000000000007
 30
0.0
 11
-0.0000000000000002
 21
17.250000000000007
 31
0.0
  0
LINE
  5
A0
100
AcDbEntity
100
AcDbLine
  8
0
 62
256
370
-1
  6
ByLayer
 10
21.25
 20
17.250000000000007
 30
0.0
 11
21.25
 21
20.250000000000007
 31
0.0
  0
LINE
  5
A1
100
AcDbEntity
100
AcDbLine
  8
0
 62
256
370
-1
  6
ByLayer
 10
-0.0000000000000002
 20
25.000000000000007
 30
0.0
 11
-0.0000000000000002
 21
22.000000000000007
 31
0.0
  0
LINE
  5
A2
100
AcDbEntity
100
AcDbLine
  8
0
 62
256
370
-1
  6
ByLayer
 10
21.25
 20
22.000000000000007
 30
0.0
 11
21.25
 21
25.000000000000007
 31
0.0
  0
LINE
  5
A3
100
AcDbEntity
100
AcDbLine
  8
0
 62
256
370
-1
  6
ByLayer
 10
1.0
 20
2.7500000000000004
 30
0.0
 11
20.25
 21
2.7500000000000004
 31
0.0
  0
LINE
  5
A4
100
AcDbEntity
100
AcDbLine
  8
0
 62
256
370
-1
  6
ByLayer
 10
20.25
 20
6.7500000000000009
 30
0.0
 11
1.0
 21
6.7500000000000009
 31
0.0
  0
LINE
  5
A5
100
AcDbEntity
100
AcDbLine
  8
0
 62
256
370
-1
  6
ByLayer
 10
1.0
 20
6.7500000000000009
 30
0.0
 11
1.75
 21
6.7500000000000009
 31
0.0
  0
LINE
  5
A6
100
AcDbEntity
100
AcDbLine
  8
0
 62
256
370
-1
  6
ByLayer
 10
1.75
 20
2.7500000000000004
 30
0.0
 11
1.0
 21
2.7500000000000004
 31
0.0
  0
LINE
  5
A7
100
AcDbEntity
100
AcDbLine
  8
0
 62
256
370
-1
  6
ByLayer
 10
28.300000000000001
 20
3.5
 30
0.0
 11
29.800000000000001
 21
3.5
 31
0.0
  0
LINE
  5
A8
100
AcDbEntity
100
AcDbLine
  8
0
 62
256
370
-1
  6
ByLayer
 10
28.300000000000001
 20
4.25
 30
0.0
 11
28.0
 21
4.25
 31
0.0
  0
LINE
  5
A9
100
AcDbEntity
100
AcDbLine
  8
0
 62
256
370
-1
  6
ByLayer
 10
28.0
 20
4.25
 30
0.0
 11
28.0
 21
3.5
 31
0.0
  0
LINE
  5
AA
100
AcDbEntity
100
AcDbLine
  8
0
 62
256
370
-1
  6
ByLayer
 10
28.0
 20
3.5
 30
0.0
 11
28.300000000000001
 21
3.5
 31
0.0
  0
LINE
  5
AB
100
AcDbEntity
100
AcDbLine
  8
0
 62
256
370
-1
  6
ByLayer
 10
49.549999999999997
 20
3.5
 30
0.0
 11
29.550000000000001
 21
3.5
 31
0.0
  0
LINE
  5
AC
100
AcDbEntity
100
AcDbLine
  8
0
 62
256
370
-1
  6
ByLayer
 10
29.550000000000001
 20
3.5
 30
0.0
 11
49.549999999999997
 21
3.5
 31
0.0
  0
LINE
  5
AD
100
AcDbEntity
100
AcDbLine
  8
0
 62
256
370
-1
  6
ByLayer
 10
29.550000000000001
 20
3.5
 30
0.0
 11
49.549999999999997
 21
3.5
 31
0.0
  0
LINE
  5
AE
100
AcDbEntity
100
AcDbLine
  8
0
 62
256
370
-1
  6
ByLayer
 10
49.549999999999997
 20
3.5
 30
0.0
 11
48.049999999999997
 21
3.5
 31
0.0
  0
LINE
  5
AF
100
AcDbEntity
100
AcDbLine
  8
0
 62
256
370
-1
  6
ByLayer
 10
49.850000000000001
 20
4.25
 30
0.0
 11
49.850000000000001
 21
3.5
 31
0.0
  0
LINE
  5
B0
100
AcDbEntity
100
AcDbLine
  8
0
 62
256
370
-1
  6
ByLayer
 10
49.850000000000001
 20
4.25
 30
0.0
 11
49.850000000000001
 21
3.5
 31
0.0
  0
LINE
  5
B1
100
AcDbEntity
100
AcDbLine
  8
0
 62
256
370
-1
  6
ByLayer
 10
49.850000000000001
 20
4.25
 30
0.0
 11
49.850000000000001
 21
3.5
 31
0.0
  0
LINE
  5
B2
100
AcDbEntity
100
AcDbLine
  8
0
 62
256
370
-1
  6
ByLayer
 10
49.850000000000001
 20
4.25
 30
0.0
 11
49.549999999999997
 21
4.25
 31
0.0
  0
LINE
  5
B3
100
AcDbEntity
100
AcDbLine
  8
0
 62
256
370
-1
  6
ByLayer
 10
49.549999999999997
 20
3.5
 30
0.0
 11
49.850000000000001
 21
3.5
 31
0.0
  0
LINE
  5
B4
100
AcDbEntity
100
AcDbLine
  8
0
 62
256
370
-1
  6
ByLayer
 10
49.850000000000001
 20
3.5
 30
0.0
 11
49.850000000000001
 21
4.25
 31
0.0
  0
LINE
  5
B5
100
AcDbEntity
100
AcDbLine
  8
0
 62
256
370
-1
  6
ByLayer
 10
49.549999999999997
 20
4.25
 30
0.0
 11
28.300000000000001
 21
4.25
 31
0.0
  0
MTEXT
  5
B6
100
AcDbEntity
100
AcDbMText
  8
0
 62
256
370
-1
  6
ByLayer
 10
38.300000000000004
 20
4.0999999999999996
 30
0.0
 40
0.25
 41
100.0
 71
2
 72
2
  1
E
  7
normallatin1
 50
0.0
 73
0
 44
1.0
  0
LINE
  5
B7
100
AcDbEntity
100
AcDbLine
  8
0
 62
256
370
-1
  6
ByLayer
 10
28.300000000000001
 20
9.0
 30
0.0
 11
28.0
 21
9.0
 31
0.0
  0
LINE
  5
B8
100
AcDbEntity
100
AcDbLine
  8
0
 62
256
370
-1
  6
ByLayer
 10
28.0
 20
9.0
 30
0.0
 11
28.0
 21
8.25
 31
0.0
  0
LINE
  5
B9
100
AcDbEntity
100
AcDbLine
  8
0
 62
256
370
-1
  6
ByLayer
 10
28.0
 20
8.25
 30
0.0
 11
28.300000000000001
 21
8.25
 31
0.0
  0
LINE
  5
BA
100
AcDbEntity
100
AcDbLine
  8
0
 62
256
370
-1
  6
ByLayer
 10
49.850000000000001
 20
9.0
 30
0.0
 11
49.850000000000001
 21
8.25
 31
0.0
  0
LINE
  5
BB
100
AcDbEntity
100
AcDbLine
  8
0
 62
256
370
-1
  6
ByLayer
 10
49.850000000000001
 20
9.0
 30
0.0
 11
49.850000000000001
 21
8.25
 31
0.0
  0
LINE
  5
BC
100
AcDbEntity
100
AcDbLine
  8
0
 62
256
370
-1
  6
ByLayer
 10
49.850000000000001
 20
9.0
 30
0.0
 11
49.850000000000001
 21
8.25
 31
0.0
  0
LINE
  5
BD
100
AcDbEntity
100
AcDbLine
  8
0
 62
256
370
-1
  6
ByLayer
 10
49.850000000000001
 20
9.0
 30
0.0
 11
49.549999999999997
 21
9.0
 31
0.0
  0
LINE
  5
BE
100
AcDbEntity
100
AcDbLine
  8
0
 62
256
370
-1
  6
ByLayer
 10
49.549999999999997
 20
8.25
 30
0.0
 11
49.850000000000001
 21
8.25
 31
0.0
  0
LINE
  5
BF
100
AcDbEntity
100
AcDbLine
  8
0
 62
256
370
-1
  6
ByLayer
 10
49.850000000000001
 20
8.25
 30
0.0
 11
49.850000000000001
 21
9.0
 31
0.0
  0
LINE
  5
C0
100
AcDbEntity
100
AcDbLine
  8
0
 62
256
370
-1
  6
ByLayer
 10
49.549999999999997
 20
9.0
 30
0.0
 11
28.300000000000001
 21
9.0
 31
0.0
  0
MTEXT
  5
C1
100
AcDbEntity
100
AcDbMText
  8
0
 62
256
370
-1
  6
ByLayer
 10
38.299999999999997
 20
8.75
 30
0.0
 40
0.25
 41
100.0
 71
2
 72
2
  1
E
  7
normallatin1
 50
0.0
 73
0
 44
1.0
  0
LINE
  5
C2
100
AcDbEntity
100
AcDbLine
  8
0
 62
256
370
-1
  6
ByLayer
 10
28.300000000000001
 20
4.25
 30
0.0
 11
28.300000000000001
 21
8.25
 31
0.0
  0
LINE
  5
C3
100
AcDbEntity
100
AcDbLine
  8
0
 62
256
370
-1
  6
ByLayer
 10
49.549999999999997
 20
4.25
 30
0.0
 11
49.549999999999997
 21
8.25
 31
0.0
  0
LINE
  5
C4
100
AcDbEntity
100
AcDbLine
  8
0
 62
256
370
-1
  6
ByLayer
 10
49.549999999999997
 20
4.5
 30
0.0
 11
49.549999999999997
 21
7.5
 31
0.0
  0
MTEXT
  5
C5
100
AcDbEntity
100
AcDbMText
  8
0
 62
256
370
-1
  6
ByLayer
 10
29.699999999999999
 20
10.5
 30
0.0
 40
0.75
 41
100.0
 71
2
 72
2
  1
Box
  7
courier
 50
0.0
 73
1
 44
1.0
  0
MTEXT
  5
C6
100
AcDbEntity
100
AcDbMText
  8
0
 62
256
370
-1
  6
ByLayer
 10
25.600000000000001
 20
6.5000000000000009
 30
0.0
 40
0.75
 41
100.0
 71
2
 72
2
  1
Slide
  7
courier
 50
0.0
 73
1
 44
1.0
  0
LINE
  5
C7
100
AcDbEntity
100
AcDbLine
  8
0
 62
256
370
-1
  6
ByLayer
 10
28.300000000000001
 20
8.25
 30
0.0
 11
49.549999999999997
 21
8.25
 31
0.0
  0
LINE
  5
C8
100
AcDbEntity
100
AcDbLine
  8
0
 62
256
370
-1
  6
ByLayer
 10
29.800000000000001
 20
9.5000000000000018
 30
0.0
 11
29.699999999999999
 21
7.6000000000000005
 31
0.0
  0
LINE
  5
C9
100
AcDbEntity
100
AcDbLine
  8
0
 62
256
370
-1
  6
ByLayer
 10
28.300000000000004
 20
4.6000000000000005
 30
0.0
 11
28.800000000000001
 21
4.6000000000000005
 31
0.0
  0
LINE
  5
CA
100
AcDbEntity
100
AcDbLine
  8
0
 62
256
370
-1
  6
ByLayer
 10
28.800000000000001
 20
4.6000000000000005
 30
0.0
 11
28.800000000000001
 21
7.2500000000000009
 31
0.0
  0
LINE
  5
CB
100
AcDbEntity
100
AcDbLine
  8
0
 62
256
370
-1
  6
ByLayer
 10
28.800000000000001
 20
7.2500000000000009
 30
0.0
 11
28.300000000000004
 21
7.2500000000000009
 31
0.0
  0
LINE
  5
CC
100
AcDbEntity
100
AcDbLine
  8
0
 62
256
370
-1
  6
ByLayer
 10
28.300000000000004
 20
7.2500000000000009
 30
0.0
 11
28.300000000000004
 21
4.6000000000000005
 31
0.0
  0
LINE
  5
CD
100
AcDbEntity
100
AcDbLine
  8
0
 62
256
370
-1
  6
ByLayer
 10
49.050000000000011
 20
4.5000000000000009
 30
0.0
 11
49.550000000000004
 21
4.5000000000000009
 31
0.0
  0
LINE
  5
CE
100
AcDbEntity
100
AcDbLine
  8
0
 62
256
370
-1
  6
ByLayer
 10
49.550000000000004
 20
4.5000000000000009
 30
0.0
 11
49.550000000000004
 21
7.1500000000000012
 31
0.0
  0
LINE
  5
CF
100
AcDbEntity
100
AcDbLine
  8
0
 62
256
370
-1
  6
ByLayer
 10
49.550000000000004
 20
7.1500000000000012
 30
0.0
 11
49.050000000000011
 21
7.1500000000000012
 31
0.0
  0
LINE
  5
D0
100
AcDbEntity
100
AcDbLine
  8
0
 62
256
370
-1
  6
ByLayer
 10
49.050000000000011
 20
7.1500000000000012
 30
0.0
 11
49.050000000000011
 21
4.5000000000000009
 31
0.0
  0
LINE
  5
D1
100
AcDbEntity
100
AcDbLine
  8
0
 62
256
370
-1
  6
ByLayer
 10
28.800000000000001
 20
7.5
 30
0.0
 11
28.800000000000001
 21
4.5
 31
0.0
  0
LINE
  5
D2
100
AcDbEntity
100
AcDbLine
  8
0
 62
256
370
-1
  6
ByLayer
 10
28.800000000000001
 20
4.4000000000000004
 30
0.0
 11
29.549999999999997
 21
4.4000000000000004
 31
0.0
  0
LINE
  5
D3
100
AcDbEntity
100
AcDbLine
  8
0
 62
256
370
-1
  6
ByLayer
 10
29.549999999999997
 20
4.4000000000000004
 30
0.0
 11
29.549999999999997
 21
7.9000000000000004
 31
0.0
  0
LINE
  5
D4
100
AcDbEntity
100
AcDbLine
  8
0
 62
256
370
-1
  6
ByLayer
 10
29.549999999999997
 20
7.9000000000000004
 30
0.0
 11
28.800000000000001
 21
7.9000000000000004
 31
0.0
  0
LINE
  5
D5
100
AcDbEntity
100
AcDbLine
  8
0
 62
256
370
-1
  6
ByLayer
 10
28.800000000000001
 20
7.9000000000000004
 30
0.0
 11
28.800000000000001
 21
4.4000000000000004
 31
0.0
  0
LINE
  5
D6
100
AcDbEntity
100
AcDbLine
  8
0
 62
256
370
-1
  6
ByLayer
 10
29.549999999999997
 20
4.4000000000000004
 30
0.0
 11
29.549999999999997
 21
7.9000000000000004
 31
0.0
  0
LINE
  5
D7
100
AcDbEntity
100
AcDbLine
  8
0
 62
256
370
-1
  6
ByLayer
 10
48.300000000000004
 20
7.9000000000000004
 30
0.0
 11
48.300000000000004
 21
4.4000000000000004
 31
0.0
  0
LINE
  5
D8
100
AcDbEntity
100
AcDbLine
  8
0
 62
256
370
-1
  6
ByLayer
 10
48.300000000000004
 20
4.4000000000000004
 30
0.0
 11
49.050000000000004
 21
4.4000000000000004
 31
0.0
  0
LINE
  5
D9
100
AcDbEntity
100
AcDbLine
  8
0
 62
256
370
-1
  6
ByLayer
 10
49.050000000000004
 20
4.4000000000000004
 30
0.0
 11
49.050000000000004
 21
7.9000000000000004
 31
0.0
  0
LINE
  5
DA
100
AcDbEntity
100
AcDbLine
  8
0
 62
256
370
-1
  6
ByLayer
 10
49.050000000000004
 20
7.9000000000000004
 30
0.0
 11
48.300000000000004
 21
7.9000000000000004
 31
0.0
  0
LINE
  5
DB
100
AcDbEntity
100
AcDbLine
  8
0
 62
256
370
-1
  6
ByLayer
 10
48.300000000000004
 20
7.9000000000000004
 30
0.0
 11
48.300000000000004
 21
4.4000000000000004
 31
0.0
  0
LINE
  5
DC
100
AcDbEntity
100
AcDbLine
  8
0
 62
256
370
-1
  6
ByLayer
 10
29.549999999999997
 20
7.9000000000000004
 30
0.0
 11
48.300000000000004
 21
7.9000000000000004
 31
0.0
  0
LINE
  5
DD
100
AcDbEntity
100
AcDbLine
  8
0
 62
256
370
-1
  6
ByLayer
 10
48.300000000000004
 20
4.4000000000000004
 30
0.0
 11
29.549999999999997
 21
4.4000000000000004
 31
0.0
  0
LINE
  5
DE
100
AcDbEntity
100
AcDbLine
  8
0
 62
256
370
-1
  6
ByLayer
 10
28.800000000000001
 20
7.9000000000000004
 30
0.0
 11
29.187499999999996
 21
7.9000000000000004
 31
0.0
  0
LINE
  5
DF
100
AcDbEntity
100
AcDbLine
  8
0
 62
256
370
-1
  6
ByLayer
 10
29.187499999999996
 20
7.9000000000000004
 30
0.0
 11
29.187499999999996
 21
4.4000000000000004
 31
0.0
  0
LINE
  5
E0
100
AcDbEntity
100
AcDbLine
  8
0
 62
256
370
-1
  6
ByLayer
 10
29.187499999999996
 20
4.4000000000000004
 30
0.0
 11
28.800000000000001
 21
4.4000000000000004
 31
0.0
  0
LINE
  5
E1
100
AcDbEntity
100
AcDbLine
  8
0
 62
256
370
-1
  6
ByLayer
 10
28.800000000000001
 20
4.4000000000000004
 30
0.0
 11
28.800000000000001
 21
7.9000000000000004
 31
0.0
  0
LINE
  5
E2
100
AcDbEntity
100
AcDbLine
  8
0
 62
256
370
-1
  6
ByLayer
 10
48.300000000000004
 20
4.6000000000000005
 30
0.0
 11
48.300000000000004
 21
7.2500000000000009
 31
0.0
  0
LINE
  5
E3
100
AcDbEntity
100
AcDbLine
  8
0
 62
256
370
-1
  6
ByLayer
 10
48.300000000000004
 20
7.5
 30
0.0
 11
48.300000000000004
 21
4.5
 31
0.0
  0
LINE
  5
E4
100
AcDbEntity
100
AcDbLine
  8
0
 62
256
370
-1
  6
ByLayer
 10
48.300000000000004
 20
7.9000000000000004
 30
0.0
 11
48.300000000000004
 21
4.4000000000000004
 31
0.0
  0
LINE
  5
E5
100
AcDbEntity
100
AcDbLine
  8
0
 62
256
370
-1
  6
ByLayer
 10
48.300000000000004
 20
7.9000000000000004
 30
0.0
 11
48.6875
 21
7.9000000000000004
 31
0.0
  0
LINE
  5
E6
100
AcDbEntity
100
AcDbLine
  8
0
 62
256
370
-1
  6
ByLayer
 10
48.6875
 20
7.9000000000000004
 30
0.0
 11
48.6875
 21
4.4000000000000004
 31
0.0
  0
LINE
  5
E7
100
AcDbEntity
100
AcDbLine
  8
0
 62
256
370
-1
  6
ByLayer
 10
48.6875
 20
4.4000000000000004
 30
0.0
 11
48.300000000000004
 21
4.4000000000000004
 31
0.0
  0
LINE
  5
E8
100
AcDbEntity
100
AcDbLine
  8
0
 62
256
370
-1
  6
ByLayer
 10
48.300000000000004
 20
4.4000000000000004
 30
0.0
 11
48.300000000000004
 21
7.9000000000000004
 31
0.0
  0
LINE
  5
E9
100
AcDbEntity
100
AcDbLine
  8
0
 62
256
370
-1
  6
ByLayer
 10
25.600000000000001
 20
5.5
 30
0.0
 11
28.600000000000001
 21
5.1000000000000005
 31
0.0
  0
MTEXT
  5
EA
100
AcDbEntity
100
AcDbMText
  8
0
 62
256
370
-1
  6
ByLayer
 10
25.0
 20
11.0
 30
0.0
 40
0.75
 41
100.0
 71
2
 72
2
  1
Rabbit
  7
courier
 50
0.0
 73
1
 44
1.0
  0
LINE
  5
EB
100
AcDbEntity
100
AcDbLine
  8
0
 62
256
370
-1
  6
ByLayer
 10
26.0
 20
10.0
 30
0.0
 11
29.200000000000003
 21
7.2000000000000011
 31
0.0
  0
LINE
  5
EC
100
AcDbEntity
100
AcDbLine
  8
0
 62
256
370
-1
  6
ByLayer
 10
-0.0000000000000001
 20
10.750000000000002
 30
0.0
 11
-0.0000000000000002
 21
7.5000000000000009
 31
0.0
  0
DIMENSION
  5
ED
100
AcDbEntity
  8
0
 62
256
370
-1
  6
ByLayer
100
AcDbDimension
 10
47.799999999999997
 20
1.9999999999999991
 30
0.0
 11
38.924999999999997
 21
3.4999999999999991
 31
0.0
 70
0
 71
5
 72
1
 41
1.0
 42
0.0
  1

  3
Standard
100
AcDbAlignedDimension
 13
29.549999999999997
 23
4.4000000000000004
 33
0.0
 14
48.300000000000004
 24
4.4000000000000004
 34
0.0
 50
0.0
100
AcDbRotatedDimension
  0
DIMENSION
  5
EE
100
AcDbEntity
  8
0
 62
256
370
-1
  6
ByLayer
100
AcDbDimension
 10
48.549999999999997
 20
-1.100000000000001
 30
0.0
 11
38.925000000000004
 21
0.399999999999999
 31
0.0
 70
0
 71
5
 72
1
 41
1.0
 42
0.0
  1

  3
Standard
100
AcDbAlignedDimension
 13
28.800000000000001
 23
4.4000000000000004
 33
0.0
 14
49.050000000000004
 24
4.4000000000000004
 34
0.0
 50
0.0
100
AcDbRotatedDimension
  0
DIMENSION
  5
EF
100
AcDbEntity
  8
0
 62
256
370
-1
  6
ByLayer
100
AcDbDimension
 10
48.6875
 20
0.5999999999999988
 30
0.0
 11
38.9375
 21
2.0999999999999988
 31
0.0
 70
0
 71
5
 72
1
 41
1.0
 42
0.0
  1

  3
Standard
100
AcDbAlignedDimension
 13
29.187499999999996
 23
4.4000000000000004
 33
0.0
 14
48.6875
 24
4.4000000000000004
 34
0.0
 50
0.0
100
AcDbRotatedDimension
  0
MTEXT
  5
F0
100
AcDbEntity
100
AcDbMText
  8
0
 62
256
370
-1
  6
ByLayer
 10
9.9000000000000004
 20
27.900000000000002
 30
0.0
 40
0.5
 41
100.0
 71
2
 72
2
  1
F
  7
normallatin1
 50
0.0
 73
0
 44
1.0
  0
DIMENSION
  5
F1
100
AcDbEntity
  8
0
 62
256
370
-1
  6
ByLayer
100
AcDbDimension
 10
51.0
 20
7.9000000000000004
 30
0.0
 11
49.5
 21
6.2000000000000011
 31
0.0
 70
0
 71
5
 72
1
 41
1.0
 42
0.0
  1

  3
Standard
100
AcDbAlignedDimension
 13
49.050000000000011
 23
4.5000000000000009
 33
0.0
 14
49.050000000000004
 24
7.9000000000000004
 34
0.0
 50
90.0
100
AcDbRotatedDimension
  0
LINE
  5
F2
100
AcDbEntity
100
AcDbLine
  8
0
 62
256
370
-1
  6
ByLayer
 10
-0.3650000000000001
 20
21.0
 30
0.0
 11
0.0
 21
21.0
 31
0.0
  0
LINE
  5
F3
100
AcDbEntity
100
AcDbLine
  8
0
 62
256
370
-1
  6
ByLayer
 10
0.0
 20
21.75
 30
0.0
 11
-0.3650000000000001
 21
21.749999999999996
 31
0.0
  0
LINE
  5
F4
100
AcDbEntity
100
AcDbLine
  8
0
 62
256
370
-1
  6
ByLayer
 10
-0.3650000000000001
 20
21.749999999999996
 30
0.0
 11
-0.3650000000000001
 21
21.0
 31
0.0
  0
LINE
  5
F5
100
AcDbEntity
100
AcDbLine
  8
0
 62
256
370
-1
  6
ByLayer
 10
21.25
 20
21.0
 30
0.0
 11
21.625
 21
21.0
 31
0.0
  0
LINE
  5
F6
100
AcDbEntity
100
AcDbLine
  8
0
 62
256
370
-1
  6
ByLayer
 10
21.625
 20
21.75
 30
0.0
 11
21.625
 21
21.0
 31
0.0
  0
LINE
  5
F7
100
AcDbEntity
100
AcDbLine
  8
0
 62
256
370
-1
  6
ByLayer
 10
21.625
 20
21.75
 30
0.0
 11
21.25
 21
21.75
 31
0.0
  0
LINE
  5
F8
100
AcDbEntity
100
AcDbLine
  8
0
 62
256
370
-1
  6
ByLayer
 10
-0.3650000000000002
 20
16.250000000000004
 30
0.0
 11
-0.0000000000000001
 21
16.250000000000004
 31
0.0
  0
LINE
  5
F9
100
AcDbEntity
100
AcDbLine
  8
0
 62
256
370
-1
  6
ByLayer
 10
-0.0000000000000001
 20
17.000000000000004
 30
0.0
 11
-0.3650000000000002
 21
17.0
 31
0.0
  0
LINE
  5
FA
100
AcDbEntity
100
AcDbLine
  8
0
 62
256
370
-1
  6
ByLayer
 10
-0.3650000000000002
 20
17.0
 30
0.0
 11
-0.3650000000000002
 21
16.250000000000004
 31
0.0
  0
LINE
  5
FB
100
AcDbEntity
100
AcDbLine
  8
0
 62
256
370
-1
  6
ByLayer
 10
-0.3650000000000003
 20
11.500000000000007
 30
0.0
 11
-0.0000000000000002
 21
11.500000000000007
 31
0.0
  0
LINE
  5
FC
100
AcDbEntity
100
AcDbLine
  8
0
 62
256
370
-1
  6
ByLayer
 10
-0.0000000000000002
 20
12.250000000000007
 30
0.0
 11
-0.3650000000000003
 21
12.250000000000004
 31
0.0
  0
LINE
  5
FD
100
AcDbEntity
100
AcDbLine
  8
0
 62
256
370
-1
  6
ByLayer
 10
-0.3650000000000003
 20
12.250000000000004
 30
0.0
 11
-0.3650000000000003
 21
11.500000000000007
 31
0.0
  0
LINE
  5
FE
100
AcDbEntity
100
AcDbLine
  8
0
 62
256
370
-1
  6
ByLayer
 10
-0.3650000000000004
 20
6.7500000000000107
 30
0.0
 11
-0.0000000000000003
 21
6.7500000000000107
 31
0.0
  0
LINE
  5
FF
100
AcDbEntity
100
AcDbLine
  8
0
 62
256
370
-1
  6
ByLayer
 10
-0.0000000000000003
 20
7.5000000000000107
 30
0.0
 11
-0.3650000000000004
 21
7.5000000000000071
 31
0.0
  0
LINE
  5
100
100
AcDbEntity
100
AcDbLine
  8
0
 62
256
370
-1
  6
ByLayer
 10
-0.3650000000000004
 20
7.5000000000000071
 30
0.0
 11
-0.3650000000000004
 21
6.7500000000000107
 31
0.0
  0
LINE
  5
101
100
AcDbEntity
100
AcDbLine
  8
0
 62
256
370
-1
  6
ByLayer
 10
-0.3650000000000005
 20
2.0000000000000142
 30
0.0
 11
-0.0000000000000004
 21
2.0000000000000142
 31
0.0
  0
LINE
  5
102
100
AcDbEntity
100
AcDbLine
  8
0
 62
256
370
-1
  6
ByLayer
 10
-0.0000000000000004
 20
2.7500000000000142
 30
0.0
 11
-0.3650000000000005
 21
2.7500000000000107
 31
0.0
  0
LINE
  5
103
100
AcDbEntity
100
AcDbLine
  8
0
 62
256
370
-1
  6
ByLayer
 10
-0.3650000000000005
 20
2.7500000000000107
 30
0.0
 11
-0.3650000000000005
 21
2.0000000000000142
 31
0.0
  0
LINE
  5
104
100
AcDbEntity
100
AcDbLine
  8
0
 62
256
370
-1
  6
ByLayer
 10
21.25
 20
16.250000000000004
 30
0.0
 11
21.625
 21
16.250000000000004
 31
0.0
  0
LINE
  5
105
100
AcDbEntity
100
AcDbLine
  8
0
 62
256
370
-1
  6
ByLayer
 10
21.625
 20
17.000000000000004
 30
0.0
 11
21.625
 21
16.250000000000004
 31
0.0
  0
LINE
  5
106
100
AcDbEntity
100
AcDbLine
  8
0
 62
256
370
-1
  6
ByLayer
 10
21.625
 20
17.000000000000004
 30
0.0
 11
21.25
 21
17.000000000000004
 31
0.0
  0
LINE
  5
107
100
AcDbEntity
100
AcDbLine
  8
0
 62
256
370
-1
  6
ByLayer
 10
21.25
 20
11.500000000000007
 30
0.0
 11
21.625
 21
11.500000000000007
 31
0.0
  0
LINE
  5
108
100
AcDbEntity
100
AcDbLine
  8
0
 62
256
370
-1
  6
ByLayer
 10
21.625
 20
12.250000000000007
 30
0.0
 11
21.625
 21
11.500000000000007
 31
0.0
  0
LINE
  5
109
100
AcDbEntity
100
AcDbLine
  8
0
 62
256
370
-1
  6
ByLayer
 10
21.625
 20
12.250000000000007
 30
0.0
 11
21.25
 21
12.250000000000007
 31
0.0
  0
LINE
  5
10A
100
AcDbEntity
100
AcDbLine
  8
0
 62
256
370
-1
  6
ByLayer
 10
21.25
 20
6.7500000000000107
 30
0.0
 11
21.625
 21
6.7500000000000107
 31
0.0
  0
LINE
  5
10B
100
AcDbEntity
100
AcDbLine
  8
0
 62
256
370
-1
  6
ByLayer
 10
21.625
 20
7.5000000000000107
 30
0.0
 11
21.625
 21
6.7500000000000107
 31
0.0
  0
LINE
  5
10C
100
AcDbEntity
100
AcDbLine
  8
0
 62
256
370
-1
  6
ByLayer
 10
21.625
 20
7.5000000000000107
 30
0.0
 11
21.25
 21
7.5000000000000107
 31
0.0
  0
LINE
  5
10D
100
AcDbEntity
100
AcDbLine
  8
0
 62
256
370
-1
  6
ByLayer
 10
21.25
 20
2.0000000000000142
 30
0.0
 11
21.625
 21
2.0000000000000142
 31
0.0
  0
LINE
  5
10E
100
AcDbEntity
100
AcDbLine
  8
0
 62
256
370
-1
  6
ByLayer
 10
21.625
 20
2.7500000000000142
 30
0.0
 11
21.625
 21
2.0000000000000142
 31
0.0
  0
LINE
  5
10F
100
AcDbEntity
100
AcDbLine
  8
0
 62
256
370
-1
  6
ByLayer
 10
21.625
 20
2.7500000000000142
 30
0.0
 11
21.25
 21
2.7500000000000142
 31
0.0
  0
DIMENSION
  5
110
100
AcDbEntity
  8
0
 62
256
370
-1
  6
ByLayer
100
AcDbDimension
 10
21.625
 20
34.0
 30
0.0
 11
10.630000000000001
 21
35.5
 31
0.0
 70
0
 71
5
 72
1
 41
1.0
 42
0.0
  1

  3
Standard
100
AcDbAlignedDimension
 13
-0.3650000000000001
 23
21.749999999999996
 33
0.0
 14
21.625
 24
21.75
 34
0.0
 50
0.0
100
AcDbRotatedDimension
  0
LINE
  5
111
100
AcDbEntity
100
AcDbLine
  8
0
 62
256
370
-1
  6
ByLayer
 10
0.0
 20
16.250000000000004
 30
0.0
 11
21.25
 21
16.250000000000004
 31
0.0
  0
MTEXT
  5
112
100
AcDbEntity
100
AcDbMText
  8
0
 62
256
370
-1
  6
ByLayer
 10
19.0
 20
5.0
 30
0.0
 40
1.0
 41
100.0
 71
2
 72
2
  1
G
  7
courier
 50
0.0
 73
0
 44
1.0
  0
MTEXT
  5
113
100
AcDbEntity
100
AcDbMText
  8
0
 62
256
370
-1
  6
ByLayer
 10
19.0
 20
10.0
 30
0.0
 40
1.0
 41
100.0
 71
2
 72
2
  1
G
  7
courier
 50
0.0
 73
0
 44
1.0
  0
MTEXT
  5
114
100
AcDbEntity
100
AcDbMText
  8
0
 62
256
370
-1
  6
ByLayer
 10
19.0
 20
15.0
 30
0.0
 40
1.0
 41
100.0
 71
2
 72
2
  1
G
  7
courier
 50
0.0
 73
0
 44
1.0
  0
MTEXT
  5
115
100
AcDbEntity
100
AcDbMText
  8
0
 62
256
370
-1
  6
ByLayer
 10
19.099999999999998
 20
19.399999999999999
 30
0.0
 40
1.0
 41
100.0
 71
2
 72
2
  1
G
  7
courier
 50
0.0
 73
0
 44
1.0
  0
MTEXT
  5
116
100
AcDbEntity
100
AcDbMText
  8
0
 62
256
370
-1
  6
ByLayer
 10
19.0
 20
24.0
 30
0.0
 40
1.0
 41
100.0
 71
2
 72
2
  1
G
  7
courier
 50
0.0
 73
0
 44
1.0
  0
MTEXT
  5
117
100
AcDbEntity
100
AcDbMText
  8
0
 62
256
370
-1
  6
ByLayer
 10
0.8000000000000002
 20
26.75
 30
0.0
 40
0.75
 41
100.0
 71
2
 72
2
  1
H
  7
normallatin1
 50
0.0
 73
0
 44
1.0
  0
MTEXT
  5
118
100
AcDbEntity
100
AcDbMText
  8
0
 62
256
370
-1
  6
ByLayer
 10
0.7999999999999999
 20
1.6000000000000001
 30
0.0
 40
0.75
 41
100.0
 71
2
 72
2
  1
H
  7
normallatin1
 50
0.0
 73
0
 44
1.0
  0
MTEXT
  5
119
100
AcDbEntity
100
AcDbMText
  8
0
 62
256
370
-1
  6
ByLayer
 10
20.5
 20
26.850000000000001
 30
0.0
 40
0.75
 41
100.0
 71
2
 72
2
  1
H
  7
normallatin1
 50
0.0
 73
0
 44
1.0
  0
MTEXT
  5
11A
100
AcDbEntity
100
AcDbMText
  8
0
 62
256
370
-1
  6
ByLayer
 10
20.5
 20
1.6000000000000001
 30
0.0
 40
0.75
 41
100.0
 71
2
 72
2
  1
H
  7
normallatin1
 50
0.0
 73
0
 44
1.0
  0
MTEXT
  5
11B
100
AcDbEntity
100
AcDbMText
  8
0
 62
256
370
-1
  6
ByLayer
 10
9.8999999999999986
 20
26.850000000000001
 30
0.0
 40
0.75
 41
100.0
 71
2
 72
2
  1
J
  7
normallatin1
 50
0.0
 73
0
 44
1.0
  0
MTEXT
  5
11C
100
AcDbEntity
100
AcDbMText
  8
0
 62
256
370
-1
  6
ByLayer
 10
9.8000000000000007
 20
1.6000000000000001
 30
0.0
 40
0.75
 41
100.0
 71
2
 72
2
  1
K
  7
normallatin1
 50
0.0
 73
0
 44
1.0
  0
MTEXT
  5
11D
100
AcDbEntity
100
AcDbMText
  8
0
 62
256
370
-1
  6
ByLayer
 10
26.0
 20
30.0
 30
0.0
 40
1.0
 41
100.0
 71
1
 72
2
  3
Cut\~List\~(3/4"\~Plywood\Punless\~indicated\~otherwise)\PItem\~\~Qty\~\~Length\~\~Width\PA\~\~\~\~\~\~2\~\~\~\~\~\~28\~\~\~\~\~\~\~18\PE\~\~\~\~\~\~5\~\~\~\~\~\~22\~\~\~\~\~\~\~18\PF\~\~\~\~\~\~1\~\~\~\~\~\~22.75\~\~\~\~\~18\PG\~\~\~\~\~\~5\~\~\~\~\
  1
~21.25\~\~\~\~\~\~4\PH\~\~\~\~\~\~4\~\~\~\~\~\~14\~\~\~\~\~\~\~\~(1.5x1.5)\PJ\~\~\~\~\~\~1\~\~\~\~\~\~21.25\~\~\~\~\~1.5\PK\~\~\~\~\~\~1\~\~\~\~\~\~21.25\~\~\~\~\~2\P
  7
romans2
 50
0.0
 73
0
 44
1.0
  0
MTEXT
  5
11E
100
AcDbEntity
100
AcDbMText
  8
0
 62
256
370
-1
  6
ByLayer
 10
-0.3999999999999994
 20
18.900000000000002
 30
0.0
 40
0.75
 41
100.0
 71
2
 72
2
  1
A
  7
normallatin1
 50
0.0
 73
0
 44
1.0
  0
MTEXT
  5
11F
100
AcDbEntity
100
AcDbMText
  8
0
 62
256
370
-1
  6
ByLayer
 10
21.600000000000001
 20
19.199999999999999
 30
0.0
 40
0.75
 41
100.0
 71
2
 72
2
  1
A
  7
normallatin1
 50
0.0
 73
0
 44
1.0
  0
DIMENSION
  5
120
100
AcDbEntity
  8
0
 62
256
370
-1
  6
ByLayer
100
AcDbDimension
 10
29.187499999999996
 20
4.4000000000000021
 30
0.0
 11
28.0
 21
5.0
 31
0.0
 70
0
 71
5
 72
1
 41
1.0
 42
0.0
  1

  3
Standard
100
AcDbAlignedDimension
 13
28.800000000000001
 23
4.4000000000000004
 33
0.0
 14
29.187499999999996
 24
4.4000000000000004
 34
0.0
 50
0.0
100
AcDbRotatedDimension
  0
MTEXT
  5
121
100
AcDbEntity
100
AcDbMText
  8
0
 62
256
370
-1
  6
ByLayer
 10
39.299999999999997
 20
7.0000000000000009
 30
0.0
 40
1.0
 41
100.0
 71
2
 72
2
  1
Drawer\~Detail\~(front)
  7
normallatin1
 50
0.0
 73
0
 44
1.0
  0
DIMENSION
  5
122
100
AcDbEntity
  8
0
 62
256
370
-1
  6
ByLayer
100
AcDbDimension
 10
-2.0000000000000004
 20
2.75
 30
0.0
 11
-3.0
 21
2.0
 31
0.0
 70
0
 71
5
 72
0
 41
1.0
 42
0.0
  1

  3
Standard
100
AcDbAlignedDimension
 13
-0.3
 23
2.0
 33
0.0
 14
-0.3
 24
2.75
 34
0.0
 50
90.0
100
AcDbRotatedDimension
  0
DIMENSION
  5
123
100
AcDbEntity
  8
0
 62
256
370
-1
  6
ByLayer
100
AcDbDimension
 10
-1.2999999999999996
 20
6.75
 30
0.0
 11
-2.0
 21
5.0
 31
0.0
 70
0
 71
5
 72
1
 41
1.0
 42
0.0
  1

  3
Standard
100
AcDbAlignedDimension
 13
-0.3
 23
2.75
 33
0.0
 14
-0.3
 24
6.75
 34
0.0
 50
90.0
100
AcDbRotatedDimension
  0
DIMENSION
  5
124
100
AcDbEntity
  8
0
 62
256
370
-1
  6
ByLayer
100
AcDbDimension
 10
23.939715509937162
 20
16.258071957735886
 30
0.0
 11
22.439715509937162
 21
8.1290359788679432
 31
0.0
 70
0
 71
5
 72
1
 41
1.0
 42
0.0
  1

  3
Standard
100
AcDbAlignedDimension
 13
22.015083938616378
 23
0.0
 33
0.0
 14
21.626781077735899
 24
16.258071957735886
 34
0.0
 50
90.0
100
AcDbRotatedDimension
  0
ENDSEC
  0
SECTION
  2
OBJECTS
  0
DICTIONARY
  5
C
100
AcDbDictionary
280
0
281
1
  3
ACAD_GROUP
350
D
  3
ACAD_LAYOUT
350
1A
  3
ACAD_MLINESTYLE
350
17
  3
ACAD_PLOTSETTINGS
350
19
  3
ACAD_PLOTSTYLENAME
350
E
  3
AcDbVariableDictionary
350
125
  0
DICTIONARY
  5
D
100
AcDbDictionary
280
0
281
1
  0
ACDBDICTIONARYWDFLT
  5
E
100
AcDbDictionary
281
1
  3
Normal
350
F
100
AcDbDictionaryWithDefault
340
F
  0
ACDBPLACEHOLDER
  5
F
  0
DICTIONARY
  5
17
100
AcDbDictionary
280
0
281
1
  3
Standard
350
18
  0
MLINESTYLE
  5
18
100
AcDbMlineStyle
  2
STANDARD
 70
0
  3

 62
256
 51
90.0
 52
90.0
 71
2
 49
0.5
 62
256
  6
BYLAYER
 49
-0.5
 62
256
  6
BYLAYER
  0
DICTIONARY
  5
19
100
AcDbDictionary
280
0
281
1
  0
DICTIONARY
  5
1A
100
AcDbDictionary
281
1
  3
Layout1
350
1E
  3
Layout2
350
26
  3
Model
350
22
  0
LAYOUT
  5
1E
100
AcDbPlotSettings
  1

  2
C:\Program Files\AutoCAD 2002\plotters\DWF ePlot (optimized for plotting).pc3
  4

  6

 40
0.0
 41
0.0
 42
0.0
 43
0.0
 44
0.0
 45
0.0
 46
0.0
 47
0.0
 48
0.0
 49
0.0
140
0.0
141
0.0
142
1.0
143
1.0
 70
688
 72
0
 73
0
 74
5
  7

 75
16
147
1.0
148
0.0
149
0.0
100
AcDbLayout
  1
Layout1
 70
1
 71
1
 10
0.0
 20
0.0
 11
420.0
 21
297.0
 12
0.0
 22
0.0
 32
0.0
 14
100000000000000000000.0
 24
100000000000000000000.0
 34
100000000000000000000.0
 15
-100000000000000000000.0
 25
-100000000000000000000.0
 35
-100000000000000000000.0
146
0.0
 13
0.0
 23
0.0
 33
0.0
 16
1.0
 26
0.0
 36
0.0
 17
0.0
 27
1.0
 37
0.0
 76
0
330
1B
  0
LAYOUT
  5
22
100
AcDbPlotSettings
  1

  2
C:\Program Files\AutoCAD 2002\plotters\DWF ePlot (optimized for plotting).pc3
  4

  6

 40
0.0
 41
0.0
 42
0.0
 43
0.0
 44
0.0
 45
0.0
 46
0.0
 47
0.0
 48
0.0
 49
0.0
140
0.0
141
0.0
142
1.0
143
1.0
 70
1712
 72
0
 73
0
 74
0
  7

 75
0
147
1.0
148
0.0
149
0.0
100
AcDbLayout
  1
Model
 70
1
 71
0
 10
0.0
 20
0.0
 11
12.0
 21
9.0
 12
0.0
 22
0.0
 32
0.0
 14
0.0
 24
0.0
 34
0.0
 15
0.0
 25
0.0
 35
0.0
146
0.0
 13
0.0
 23
0.0
 33
0.0
 16
1.0
 26
0.0
 36
0.0
 17
0.0
 27
1.0
 37
0.0
 76
0
330
1F
  0
LAYOUT
  5
26
100
AcDbPlotSettings
  1

  2
C:\Program Files\AutoCAD 2002\plotters\DWF ePlot (optimized for plotting).pc3
  4

  6

 40
0.0
 41
0.0
 42
0.0
 43
0.0
 44
0.0
 45
0.0
 46
0.0
 47
0.0
 48
0.0
 49
0.0
140
0.0
141
0.0
142
1.0
143
1.0
 70
688
 72
0
 73
0
 74
5
  7

 75
16
147
1.0
148
0.0
149
0.0
100
AcDbLayout
  1
Layout2
 70
1
 71
2
 10
0.0
 20
0.0
 11
12.0
 21
9.0
 12
0.0
 22
0.0
 32
0.0
 14
0.0
 24
0.0
 34
0.0
 15
0.0
 25
0.0
 35
0.0
146
0.0
 13
0.0
 23
0.0
 33
0.0
 16
1.0
 26
0.0
 36
0.0
 17
0.0
 27
1.0
 37
0.0
 76
0
330
23
  0
DICTIONARY
  5
125
100
AcDbDictionary
281
1
  3
DIMASSOC
350
127
  3
HIDETEXT
350
126
  0
DICTIONARYVAR
  5
126
100
DictionaryVariables
280
0
  1
2
  0
DICTIONARYVAR
  5
127
100
DictionaryVariables
280
0
  1
1
  0
ENDSEC
  0
EOF
